<?xml version="1.0" encoding="utf-8"?>
<svg version="1.1" xmlns:xlink="http://www.w3.org/1999/xlink" width="1113px" height="33px" xmlns="http://www.w3.org/2000/svg">
  <g transform="matrix(1 0 0 1 -114 -505 )">
    <path d="M 115 521.5  A 15.5 15.5 0 0 1 130.5 506 L 1210.5 506  A 15.5 15.5 0 0 1 1226 521.5 A 15.5 15.5 0 0 1 1210.5 537 L 130.5 537  A 15.5 15.5 0 0 1 115 521.5 Z " fill-rule="nonzero" fill="#ffffff" stroke="none" />
    <path d="M 114.5 521.5  A 16 16 0 0 1 130.5 505.5 L 1210.5 505.5  A 16 16 0 0 1 1226.5 521.5 A 16 16 0 0 1 1210.5 537.5 L 130.5 537.5  A 16 16 0 0 1 114.5 521.5 Z " stroke-width="1" stroke-dasharray="9,4" stroke="#f59a23" fill="none" stroke-dashoffset="0.5" />
  </g>
</svg>