<?xml version="1.0" encoding="utf-8"?>
<svg version="1.1" xmlns:xlink="http://www.w3.org/1999/xlink" width="280px" height="278px" xmlns="http://www.w3.org/2000/svg">
  <g transform="matrix(1 0 0 1 -706 -186 )">
    <path d="M 708 208  A 20 20 0 0 1 728 188 L 964 188  A 20 20 0 0 1 984 208 L 984 442  A 20 20 0 0 1 964 462 L 728 462  A 20 20 0 0 1 708 442 L 708 208  Z " fill-rule="nonzero" fill="#ffffff" stroke="none" fill-opacity="0" />
    <path d="M 707 208  A 21 21 0 0 1 728 187 L 964 187  A 21 21 0 0 1 985 208 L 985 442  A 21 21 0 0 1 964 463 L 728 463  A 21 21 0 0 1 707 442 L 707 208  Z " stroke-width="2" stroke-dasharray="18,8" stroke="#ffffff" fill="none" />
  </g>
</svg>