<?xml version="1.0" encoding="utf-8"?>
<svg version="1.1" xmlns:xlink="http://www.w3.org/1999/xlink" width="73px" height="73px" xmlns="http://www.w3.org/2000/svg">
  <g transform="matrix(1 0 0 1 -810 -234 )">
    <path d="M 25.6578409090909 27.1178409090909  L 41.9418181818182 72.9419318181818  L 50.1294318181818 50.6769318181818  L 72.3944318181818 42.4893181818182  L 25.6578409090909 27.1178409090909  Z M 59.7770454545454 42.705  L 48.6943181818182 46.7780681818182  L 46.8942045454545 47.4417045454545  L 46.2305681818182 49.2418181818182  L 41.9998863636364 60.7393181818182  L 32.39375 33.6961363636364  L 59.7770454545454 42.705  Z M 13.7040909090909 59.4452272727273  C 16.6904545454545 62.4067045454545  20.1496590909091 64.7377272727273  23.99875 66.3719318181818  C 26.8357954545455 67.5747727272727  29.8055681818182 68.3545454545455  32.8582954545455 68.7029545454545  L 32.8582954545455 72.8755681818182  C 14.4506818181818 71.0090909090909  0.0912500000000019 55.4634090909091  0.0912500000000019 36.5663636363636  C 0.0912500000000019 16.4084090909091  16.4332954545455 0.0663636363636326  36.59125 0.0663636363636326  C 55.4882954545455 0.0663636363636326  71.0339772727273 14.4257954545454  72.9004545454545 32.8334090909091  L 68.7278409090909 32.8334090909091  C 68.3794318181818 29.7806818181818  67.5996590909091 26.8109090909091  66.3968181818182 23.9738636363636  C 64.7709090909091 20.1247727272727  62.4315909090909 16.6655681818182  59.4618181818182 13.6875  C 56.4920454545454 10.7177272727273  53.0328409090909 8.37840909090909  49.1754545454545 6.7525  C 45.1936363636364 5.06852272727272  40.9546590909091 4.21409090909091  36.5829545454545 4.21409090909091  C 32.21125 4.21409090909091  27.9805681818182 5.06852272727272  23.9904545454545 6.7525  C 20.1413636363636 8.37840909090909  16.6821590909091 10.7177272727273  13.7040909090909 13.6875  C 10.7343181818182 16.6572727272727  8.395 20.1164772727273  6.76909090909091 23.9738636363636  C 5.08511363636364 27.9556818181818  4.23068181818182 32.1946590909091  4.23068181818182 36.5663636363636  C 4.23068181818182 40.9380681818182  5.08511363636364 45.16875  6.76909090909091 49.1588636363636  C 8.395 53.0079545454545  10.7343181818182 56.4671590909091  13.7040909090909 59.4452272727273  Z " fill-rule="nonzero" fill="#ffffff" stroke="none" transform="matrix(1 0 0 1 810 234 )" />
  </g>
</svg>