<?xml version="1.0" encoding="utf-8"?>
<svg version="1.1" xmlns:xlink="http://www.w3.org/1999/xlink" width="124px" height="124px" xmlns="http://www.w3.org/2000/svg">
  <g transform="matrix(1 0 0 1 -78 -88 )">
    <path d="M 114.031012393519 60.6283457268518  L 106.561925925926 56.4245925925926  C 105.87422625061 56.037539591167  105.098398581142 55.8342090801051  104.309259259259 55.8342090801051  C 101.772710420049 55.8342090801051  99.7164313023273 57.890488197827  99.7164313023273 60.427037037037  C 99.7164313023273 62.0859004007085  100.610967257553 63.6158506991097  102.056592592593 64.4294814814815  L 116.042567949074 72.3011851851852  C 118.95886424537 73.9422716527778  122.594666666667 72.0133827638889  122.873283902778 68.6776296296296  C 123.11362962963 65.7842962962963  123.234567805556 63.5721975787037  123.234567949074 62  C 123.234567949074 28.1816790601852  95.8183209398148 0.765432050925925  62 0.765432050925925  C 28.1816790601852 0.765432050925925  0.765432050925925 28.1816790601852  0.765432050925925 62  C 0.765432050925925 95.8183209398148  28.1816789166667 123.234567949074  62 123.234567949074  C 82.6819753564815 123.234567949074  101.618765384259 112.896642023148  112.913481481481 96.0326420231481  C 113.427904423466 95.2726614524064  113.702845538115 94.375991525814  113.702845538115 93.4582761935108  C 113.702845538115 90.9218573424361  111.646671796597 88.8656836009182  109.110252945523 88.8656836009182  C 107.570312852392 88.8656836009182  106.132867415405 89.6374781594594  105.28212350463 90.9210864675926  C 95.6759505694445 105.265283902778  79.5865679490741 114.049382763889  62 114.049382763889  C 33.2534320509259 114.049382763889  9.95061723611111 90.7465679490741  9.95061723611111 62  C 9.95061723611111 33.2534320509259  33.2534320509259 9.9506172361111  62 9.9506172361111  C 90.2873086898148 9.9506172361111  113.303851851852 32.5155555555555  114.031012393519 60.6283457268518  Z " fill-rule="nonzero" fill="#ffffff" stroke="none" transform="matrix(1 0 0 1 78 88 )" />
  </g>
</svg>