<?xml version="1.0" encoding="utf-8"?>
<svg version="1.1" xmlns:xlink="http://www.w3.org/1999/xlink" width="280px" height="278px" xmlns="http://www.w3.org/2000/svg">
  <g transform="matrix(1 0 0 1 -706 -525 )">
    <path d="M 708 547  A 20 20 0 0 1 728 527 L 964 527  A 20 20 0 0 1 984 547 L 984 781  A 20 20 0 0 1 964 801 L 728 801  A 20 20 0 0 1 708 781 L 708 547  Z " fill-rule="nonzero" fill="#ffffff" stroke="none" fill-opacity="0" />
    <path d="M 707 547  A 21 21 0 0 1 728 526 L 964 526  A 21 21 0 0 1 985 547 L 985 781  A 21 21 0 0 1 964 802 L 728 802  A 21 21 0 0 1 707 781 L 707 547  Z " stroke-width="2" stroke-dasharray="18,8" stroke="#0169b6" fill="none" />
  </g>
</svg>